<svg fill="none" height="32" viewBox="0 0 32 32" width="32" xmlns="http://www.w3.org/2000/svg"><path d="m12.1685 27.6986v-6.8299c1.7939.0005 3.5735.3193 5.256.9416.289.0966.6004.1041.8936.0214.2933-.0827.5548-.2518.7507-.4852 2.4523-2.9161 2.9161-6.5559 2.5507-10.2239-.0207-.3133-.1371-.6126-.3336-.8575-.1964-.245-.4634-.42361-.7647-.51179-.3013-.08817-.6225-.08164-.92.01875-.2974.10038-.5569.28974-.7432.54244-2.4734 2.8107-6.3241 2.7545-9.62662 2.6983l-.12647 5.4457c-3.68201 1.5951-4.49711 5.6214-4.45494 9.2401h3.04959c-.03513-2.6982.47782-4.5041 1.40535-5.551v5.5651h3.04259zm.8081-2.8106 9.7883 2.8528 4.8835-16.9625-2.9442-.83615-4.0333 13.99015-6.844-1.9956-.8503 2.9302zm6.9424-21.78288c-.5583-.15373-1.1497-.13856-1.6994.04361-.5498.18218-1.0332.5232-1.3893.97995-.356.45674-.5688 1.00876-.6113 1.58633s.0871 1.15479.3724 1.65876c.2853.50398.7136.91209 1.2307 1.17281.5171.26073 1.0999.36236 1.6748.29207.5748-.07029 1.1159-.30934 1.555-.68698s.7564-.87694.9119-1.43481c.1035-.37141.1327-.75959.0859-1.14231s-.1686-.75245-.3586-1.08798-.4443-.63026-.7483-.86731c-.3041-.23706-.652-.4118-1.0238-.51414zm-7.7294 14.75608v-1.7426c3.0426-.2319 4.469-.4497 6.4435-1.4826-.1097 1.4128-.5502 2.78-1.2858 3.9912-1.6691-.5212-3.4091-.7796-5.1577-.766z" fill="#ff640f"/></svg>