<svg fill="none" height="12" viewBox="0 0 12 12" width="12" xmlns="http://www.w3.org/2000/svg"><rect fill="#e63223" height="12" rx="6" width="12"/><path d="m6.35727 6.06275c.13095-.07444.23691-.18599.30453-.32058.06763-.1346.09388-.2862.07545-.4357-.01844-.14949-.08073-.29018-.17902-.40431-.0983-.11414-.22819-.19661-.37329-.23701-.14511-.0404-.29893-.03693-.44206.00998-.14314.04691-.26917.13516-.36221.25362s-.14892.26181-.16059.41198c-.01166.15018.02141.30044.09504.43185.09994.17644.26576.30606.46111.36045s.4043.02912.58104-.07028zm-.3698 3.31225-1.98169-1.97815c-.39029-.3905-.65622-.88783-.76424-1.42927-.10803-.54144-.05332-1.10274.15723-1.61312.21056-.51039.56752-.947 1.02589-1.25478.45836-.30778.99759-.47294 1.5497-.47467.55211-.00172 1.09237.16007 1.55264.46499.46028.30491.81997.73928 1.0337 1.24834.21374.50906.27195 1.07001.16731 1.61211-.10465.5421-.36747 1.04108-.75532 1.43402zm0-1.08462 1.4438-1.4438c.28259-.28431.47467-.64594.55198-1.03928.07732-.39334.03641-.80077-.11756-1.17089-.15396-.37012-.41408-.68635-.74756-.90881s-.72536-.34118-1.12623-.34118-.79276.11872-1.12624.34118-.5936.53869-.74756.90881c-.15397.37012-.19488.77755-.11756 1.17089.07731.39334.26938.75497.55198 1.03928l1.43495 1.45265z" fill="#fff"/></svg>