<svg fill="none" height="32" viewBox="0 0 32 32" width="32" xmlns="http://www.w3.org/2000/svg"><path d="m18.8699 17.5023c-.4081 1.5658-1.2257 2.9949-2.3688 4.1402-1.1052 1.103-2.4998 1.8707-4.0229 2.2144-1.523.3438-3.11224.2496-4.584-.2717-1.47175-.5213-2.76597-1.4484-3.73309-2.6741-.96711-1.2258-1.56765-2.7002-1.73221-4.2529-.16456-1.5526.11357-3.1201.80225-4.5214s1.75981-2.57904 3.08959-3.39726 2.86395-1.24348 4.42516-1.22661c1.5613.01687 3.0859.47517 4.3977 1.32192l-1.5746 2.46375c-.8608-.558-1.8656-.8528-2.8914-.8484-.87827 0-1.74295.2166-2.51752.6305s-1.43511 1.0124-1.92319 1.7426c-.48807.7301-.7886 1.5693-.87497 2.4432-.08637.874.04408 1.7558.3798 2.5673s.86636 1.5278 1.54492 2.0853c.67857.5575 1.48411.9391 2.34535 1.111.86121.172 1.75161.1289 2.59221-.1254s1.6055-.7119 2.2271-1.3323c.5534-.5454.9783-1.2074 1.2436-1.9377.2654-.7303.3646-1.5106.2903-2.284 3.8552-.7263 5.0498-1.9887 5.4299-5.80997-.0052-.28133.0667-.55871.208-.80206s.3465-.44336.5933-.57835c.2469-.13498.5261-.19978.8072-.18736s.5534.10159.7874.25782c6.8213 5.32802 6.0747 13.33032 3.991 20.76242h-2.9253c1.5475-5.267 2.7963-12.0679-1.0114-16.6832-.7669 2.7149-2.3891 4.466-4.9479 5.1923zm1.0384-15.50229c.5606.00268 1.1077.17135 1.5725.48472s.8263.7574 1.039 1.27604c.2126.51864.2669 1.08866.1559 1.63811s-.3823 1.05369-.7796 1.44911-.9029.66428-1.4528.77266c-.55.10837-1.1198.05141-1.6374-.16372s-.9599-.57876-1.2711-1.04503c-.3111-.46626-.4772-1.01424-.4772-1.57478.0009-.37347.0754-.74311.2191-1.0878.1438-.3447.354-.6577.6187-.92115s.5787-.47219.9241-.61429c.3454-.14209.7154-.21476 1.0888-.21387zm5.7285 18.27149c-2.1748 2.4203-3.5061 5.4806-3.7941 8.7217h-2.9457c.3068-3.9294 1.8867-7.6515 4.5-10.6018zm-19.38458 4.819c.38661 0 .76454.1146 1.086.3294.32145.2148.572.5201.71995.8773s.18666.7502.11123 1.1294c-.07542.3792-.26158.7275-.53496 1.0009-.27338.2733-.62168.4595-1.00087.5349-.37918.0755-.77223.0367-1.12941-.1112-.35718-.148-.66246-.3985-.87725-.72-.21479-.3214-.32944-.6993-.32944-1.086-.0009-.2569.04904-.5115.14696-.7491.09792-.2375.24187-.4534.42356-.6351.1817-.1817.39755-.3256.63511-.4235.23757-.098.49217-.1479.74912-.147zm8.78278 0c.3866 0 .7646.1146 1.086.3294.3215.2148.572.5201.72.8773.1479.3572.1866.7502.1112 1.1294s-.2616.7275-.535 1.0009c-.2733.2733-.6216.4595-1.0008.5349-.3792.0755-.7723.0367-1.1294-.1112-.3572-.148-.6625-.3985-.8773-.72-.2148-.3214-.3294-.6993-.3294-1.086 0-.5184.2059-1.0156.5725-1.3822s.8638-.5725 1.3822-.5725z" fill="#ff640f"/></svg>